<?xml version="1.0" standalone="no"?>
<!DOCTYPE svg PUBLIC "-//W3C//DTD SVG 20010904//EN"
 "http://www.w3.org/TR/2001/REC-SVG-20010904/DTD/svg10.dtd">
<svg version="1.0" xmlns="http://www.w3.org/2000/svg"
 width="64.000000pt" height="64.000000pt" viewBox="0 0 64.000000 64.000000"
 preserveAspectRatio="xMidYMid meet">
<metadata>
Created by potrace 1.10, written by Peter Selinger 2001-2011
</metadata>
<g transform="translate(0.000000,64.000000) scale(0.100000,-0.100000)"
fill="#000000" stroke="none">
<path d="M52 588 c-17 -17 -17 -379 0 -396 7 -7 41 -12 85 -12 l72 0 3 -67 3
-68 125 0 125 0 3 68 3 67 52 0 c29 0 58 5 65 12 17 17 17 379 0 396 -17 17
-519 17 -536 0z m528 -28 c0 -19 -7 -20 -245 -20 -238 0 -245 1 -245 20 0 19
7 20 245 20 238 0 245 -1 245 -20z m-513 -282 c-1 -46 -3 -9 -3 82 0 91 2 128
3 83 2 -46 2 -120 0 -165z m513 82 l0 -160 -53 0 c-29 0 -58 5 -65 12 -15 15
-229 15 -244 0 -7 -7 -38 -12 -70 -12 l-58 0 0 160 0 160 245 0 245 0 0 -160z
m-340 -190 c0 -16 -4 -30 -10 -30 -5 0 -10 14 -10 30 0 17 5 30 10 30 6 0 10
-13 10 -30z m220 0 l0 -30 -85 -2 c-47 -1 -93 -2 -102 -2 -13 -1 -19 8 -21 32
l-3 32 105 0 106 0 0 -30z m-220 -80 c0 -16 -4 -30 -10 -30 -5 0 -10 14 -10
30 0 17 5 30 10 30 6 0 10 -13 10 -30z m220 0 l0 -30 -105 0 -105 0 0 30 0 30
105 0 105 0 0 -30z"/>
<path d="M351 429 l-22 -50 -31 30 c-18 17 -35 31 -38 31 -11 0 -102 -111 -97
-117 8 -7 346 -7 354 0 10 10 -80 108 -94 102 -9 -3 -18 6 -25 25 -5 17 -13
30 -18 30 -4 0 -17 -23 -29 -51z m47 -5 c7 -14 17 -22 23 -19 5 4 19 -1 30
-11 31 -28 22 -35 -16 -13 -21 13 -46 19 -60 17 -29 -6 -29 -7 -13 27 14 32
22 32 36 -1z m-144 -31 c-41 -33 -53 -29 -19 7 15 16 33 26 38 23 6 -3 -3 -17
-19 -30z m106 -13 c24 10 35 8 76 -14 l49 -25 -145 0 -145 -1 45 30 c42 28 46
28 68 14 19 -13 29 -13 52 -4z"/>
<path d="M465 470 c3 -5 19 -10 35 -10 16 0 32 5 35 10 4 6 -10 10 -35 10 -25
0 -39 -4 -35 -10z"/>
<path d="M470 440 c0 -5 16 -10 36 -10 21 0 33 4 29 10 -3 6 -19 10 -36 10
-16 0 -29 -4 -29 -10z"/>
<path d="M274 179 c-10 -17 13 -36 27 -22 12 12 4 33 -11 33 -5 0 -12 -5 -16
-11z"/>
<path d="M330 170 c0 -5 25 -10 55 -10 30 0 55 5 55 10 0 6 -25 10 -55 10 -30
0 -55 -4 -55 -10z"/>
<path d="M274 99 c-10 -17 13 -36 27 -22 12 12 4 33 -11 33 -5 0 -12 -5 -16
-11z"/>
<path d="M330 90 c0 -5 25 -10 55 -10 30 0 55 5 55 10 0 6 -25 10 -55 10 -30
0 -55 -4 -55 -10z"/>
</g>
</svg>
