<?xml version="1.0" standalone="no"?>
<!DOCTYPE svg PUBLIC "-//W3C//DTD SVG 20010904//EN"
 "http://www.w3.org/TR/2001/REC-SVG-20010904/DTD/svg10.dtd">
<svg version="1.0" xmlns="http://www.w3.org/2000/svg"
 width="100.000000pt" height="100.000000pt" viewBox="0 0 100.000000 100.000000"
 preserveAspectRatio="xMidYMid meet">
<metadata>
Created by potrace 1.10, written by Peter Selinger 2001-2011
</metadata>
<g transform="translate(0.000000,100.000000) scale(0.100000,-0.100000)"
fill="#000000" stroke="none">
<path d="M0 922 c0 -13 17 -25 55 -41 103 -43 146 -114 250 -411 69 -199 102
-267 150 -308 44 -40 82 -41 124 -6 38 32 91 141 121 249 75 269 123 388 177
436 51 44 63 35 17 -13 -71 -74 -91 -120 -165 -378 -76 -265 -118 -329 -213
-330 -86 0 -128 64 -231 355 -78 220 -124 314 -174 356 -43 35 -61 36 -89 6
-21 -22 -22 -33 -22 -168 0 -99 4 -149 12 -157 9 -9 9 -15 0 -24 -9 -9 -12
-69 -12 -210 0 -191 1 -198 20 -198 19 0 20 7 20 200 l0 200 86 0 c74 0 85 2
80 16 -3 9 -6 18 -6 20 0 2 -36 4 -80 4 l-80 0 0 155 c0 150 1 155 19 146 58
-32 101 -114 181 -346 89 -260 137 -348 210 -385 50 -25 90 -25 140 0 66 33
111 117 165 301 57 197 86 280 116 340 28 57 69 99 95 99 10 0 14 14 14 50 0
41 -3 50 -17 50 -33 -1 -99 -37 -126 -69 -62 -74 -72 -99 -186 -466 -46 -147
-80 -212 -117 -221 -59 -15 -104 58 -189 306 -102 296 -158 390 -263 437 -63
28 -82 29 -82 5z"/>
<path d="M364 504 c3 -9 6 -18 6 -20 0 -2 63 -4 140 -4 77 0 140 2 140 4 0 2
3 11 6 20 5 14 -11 16 -146 16 -135 0 -151 -2 -146 -16z"/>
<path d="M817 500 c-5 -19 0 -20 89 -20 87 0 94 1 94 20 0 18 -7 20 -89 20
-80 0 -89 -2 -94 -20z"/>
</g>
</svg>
