<?xml version="1.0" standalone="no"?>
<!DOCTYPE svg PUBLIC "-//W3C//DTD SVG 20010904//EN"
 "http://www.w3.org/TR/2001/REC-SVG-20010904/DTD/svg10.dtd">
<svg version="1.0" xmlns="http://www.w3.org/2000/svg"
 width="100.000000pt" height="100.000000pt" viewBox="0 0 100.000000 100.000000"
 preserveAspectRatio="xMidYMid meet">
<metadata>
Created by potrace 1.10, written by Peter Selinger 2001-2011
</metadata>
<g transform="translate(0.000000,100.000000) scale(0.100000,-0.100000)"
fill="#000000" stroke="none">
<path d="M454 990 c-90 -10 -150 -36 -214 -96 -54 -51 -90 -118 -110 -204 -7
-30 -35 -94 -62 -142 -29 -52 -48 -97 -46 -110 2 -16 19 -31 50 -48 l48 -25 0
-70 c0 -54 6 -79 23 -110 29 -53 95 -88 155 -82 l42 5 0 -54 c0 -47 2 -54 20
-54 18 0 20 7 20 75 l0 75 -58 -6 c-112 -12 -162 40 -162 168 l0 78 -50 25
c-27 14 -50 28 -50 32 0 3 20 41 45 83 26 45 53 108 64 153 25 96 42 129 95
182 66 66 136 89 271 89 130 0 196 -21 267 -83 119 -105 151 -318 71 -466 -88
-164 -87 -159 -91 -286 -4 -116 -4 -119 17 -119 20 0 21 5 21 93 0 107 16 171
60 241 60 95 74 141 74 251 0 76 -6 114 -21 157 -69 190 -232 273 -479 248z"/>
<path d="M446 674 c-54 -58 -67 -77 -58 -86 9 -9 23 -1 62 37 l50 49 0 -187
c0 -180 1 -187 20 -187 19 0 20 7 20 187 l0 187 50 -49 c39 -38 53 -46 62 -37
9 9 -4 28 -58 86 -38 40 -71 74 -74 74 -3 0 -36 -34 -74 -74z"/>
</g>
</svg>
